<?xml version="1.0" ?><!DOCTYPE svg  PUBLIC '-//W3C//DTD SVG 1.1//EN'  'http://www.w3.org/Graphics/SVG/1.1/DTD/svg11.dtd'><svg enable-background="new 0 0 30 30" height="30px" id="Capa_1" version="1.1" viewBox="0 0 30 30" width="30px" xml:space="preserve" xmlns="http://www.w3.org/2000/svg" xmlns:xlink="http://www.w3.org/1999/xlink"><path d="M27.1,3.8H2.9c-1.5,0-2.8,1.3-2.8,2.8v16.7c0,1.5,1.3,2.8,2.8,2.8h24.1c1.5,0,2.8-1.3,2.8-2.8V6.6  C29.9,5.1,28.6,3.8,27.1,3.8z M28.4,23.4c0,0.7-0.6,1.3-1.3,1.3H2.9c-0.7,0-1.3-0.6-1.3-1.3V6.6c0-0.7,0.6-1.3,1.3-1.3h24.1  c0.7,0,1.3,0.6,1.3,1.3V23.4z M23.5,9.4l-8.4,7.9L6.7,9.4c-0.3-0.3-0.8-0.3-1.1,0c-0.3,0.3-0.3,0.8,0,1.1l5,4.7L6.8,19  c-0.3,0.3-0.3,0.8,0,1.1c0.1,0.1,0.3,0.2,0.5,0.2c0.2,0,0.4-0.1,0.5-0.2l3.9-3.9c0,0,0,0,0,0l2.9,2.7c0.1,0.1,0.3,0.2,0.5,0.2  c0.2,0,0.4-0.1,0.5-0.2l2.9-2.8c0,0,0,0.1,0.1,0.1l3.9,3.9c0.1,0.1,0.3,0.2,0.5,0.2c0.2,0,0.4-0.1,0.5-0.2c0.3-0.3,0.3-0.8,0-1.1  l-3.9-3.9c0,0,0,0-0.1,0l4.9-4.6c0.3-0.3,0.3-0.8,0-1.1S23.8,9.1,23.5,9.4z" fill="#ffffff"/></svg>